<svg width="349" height="99" viewBox="0 0 349 99" fill="none" xmlns="http://www.w3.org/2000/svg">
<path fill-rule="evenodd" clip-rule="evenodd" d="M21 94.9998C21 69.211 40.8813 48.3049 65.4061 48.3049H90.2373V49.1303C90.2373 62.8442 79.12 73.9615 65.4061 73.9615V73.9615C54.3565 73.9615 45.399 83.3807 45.399 94.9998H21Z" fill="#FFC300"/>
<path fill-rule="evenodd" clip-rule="evenodd" d="M21 91.2227C21 58.6272 48.3095 32.2034 81.9974 32.2034L86.2428 32.2034L81.9974 49.6469H90.2373L89.7018 55.8111H81.9974C61.7847 55.8111 45.399 71.6654 45.399 91.2227V95H21V91.2227Z" fill="#FF9900"/>
<path fill-rule="evenodd" clip-rule="evenodd" d="M21 87.1433C21 53.2437 48.8109 25.7627 83.1173 25.7627L98.2881 25.7627V35.1441C98.2881 43.5227 91.4959 50.3149 83.1173 50.3149V50.3149C62.5335 50.3149 45.8469 66.8035 45.8469 87.1433V95H21V87.1433Z" fill="#FF3E80"/>
<path fill-rule="evenodd" clip-rule="evenodd" d="M21 65.5705C21 31.1354 48.8109 3.22021 83.1173 3.22021H87.4407L83.3729 22.8105H98.2881V28.1603H83.1173C62.5335 28.1603 45.8469 44.9095 45.8469 65.5705V94.9999H21V65.5705Z" fill="#D62460"/>
<path fill-rule="evenodd" clip-rule="evenodd" d="M21 62.6971C21 28.0704 48.8357 0 83.1728 0H116V0C116 13.8506 104.772 25.0788 90.9212 25.0788H83.1728C62.5705 25.0788 45.8691 41.9211 45.8691 62.6971V93.3898C45.8691 96.0576 43.7064 98.2203 41.0386 98.2203H25.8305C23.1627 98.2203 21 96.0576 21 93.3898L21 62.6971Z" fill="#8759F2"/>
<path d="M145.757 78.08C143.213 78.08 140.789 77.408 138.485 76.064C137.621 75.536 136.829 74.912 136.109 74.192C135.245 73.328 134.813 72.152 134.813 70.664C134.813 69.512 134.957 68.36 135.245 67.208C136.301 62.936 137.693 58.736 139.421 54.608L139.925 53.384C139.541 53.336 139.181 53.24 138.845 53.096L138.773 53.024C137.477 52.544 136.397 51.8 135.533 50.792C135.245 50.504 135.101 50.24 135.101 50C135.101 49.856 135.197 49.736 135.389 49.64C136.877 49.208 138.413 48.992 139.997 48.992H141.725C144.509 42.464 147.413 36.008 150.437 29.624L147.341 30.056H146.909C146.141 30.056 145.061 29.576 143.669 28.616C143.477 28.52 143.117 28.16 142.589 27.536C142.253 27.2 142.085 26.936 142.085 26.744C142.085 26.6 142.181 26.504 142.373 26.456C145.781 25.88 149.093 25.592 152.309 25.592C152.357 25.496 152.381 25.4 152.381 25.304C152.429 25.208 152.477 25.112 152.525 25.016C152.573 24.872 152.741 24.8 153.029 24.8L153.677 24.944C154.157 25.088 154.637 25.28 155.117 25.52C158.669 25.616 160.757 25.736 161.381 25.88C165.221 25.976 168.269 26.744 170.525 28.184C171.677 28.904 172.253 29.552 172.253 30.128C172.253 30.368 172.037 30.488 171.605 30.488L171.173 30.416L170.525 30.272C170.141 30.128 169.421 29.984 168.365 29.84C165.101 29.456 161.477 29.264 157.493 29.264C156.533 31.28 154.325 36.08 150.869 43.664C150.053 45.584 149.213 47.48 148.349 49.352C149.741 49.496 151.133 49.712 152.525 50C153.965 50.288 155.237 50.936 156.341 51.944C156.917 52.52 157.229 52.952 157.277 53.24C157.277 53.528 157.061 53.672 156.629 53.672C154.229 53.24 151.805 52.952 149.357 52.808C148.541 52.808 147.749 52.76 146.981 52.664C144.005 59.432 141.917 65.288 140.717 70.232C140.573 70.904 140.477 71.528 140.429 72.104C140.285 73.112 140.213 73.856 140.213 74.336L141.509 74.408C144.389 74.264 147.221 73.52 150.005 72.176L150.365 72.104C150.701 72.104 151.037 72.2 151.373 72.392L151.589 72.464C152.693 72.992 153.629 73.592 154.397 74.264C154.973 74.792 155.261 75.2 155.261 75.488C155.261 75.632 155.165 75.752 154.973 75.848C152.861 76.808 150.677 77.48 148.421 77.864C147.509 78.008 146.621 78.08 145.757 78.08ZM184.129 77.216H183.769C182.137 76.928 180.649 76.256 179.305 75.2C177.385 73.904 176.425 72.08 176.425 69.728C176.425 67.904 176.785 65.744 177.505 63.248C178.273 60.272 179.209 57.344 180.313 54.464L178.873 56.12C175.177 60.536 171.721 65.096 168.505 69.8C166.249 73.016 164.689 75.32 163.825 76.712C163.633 77.048 163.273 77.216 162.745 77.216C161.785 77.216 160.777 76.952 159.721 76.424C157.081 75.032 155.761 73.16 155.761 70.808C155.761 70.328 155.809 69.824 155.905 69.296C156.289 66.704 156.961 64.16 157.921 61.664C159.889 56.288 162.217 51.056 164.905 45.968C164.953 45.872 165.049 45.824 165.193 45.824C165.337 45.776 165.481 45.776 165.625 45.824C165.769 45.824 165.889 45.848 165.985 45.896C166.849 46.136 167.857 46.64 169.009 47.408C169.873 48.032 170.305 48.56 170.305 48.992C170.305 49.136 169.801 50.216 168.793 52.232C166.297 57.08 164.209 62.096 162.529 67.28C162.529 67.328 162.505 67.352 162.457 67.352V67.424C166.393 61.616 170.425 56.336 174.553 51.584C176.617 49.136 178.681 47.216 180.745 45.824C181.561 45.296 182.377 45.032 183.193 45.032C184.681 45.032 186.193 45.728 187.729 47.12C188.401 47.6 188.737 48.128 188.737 48.704C188.737 49.424 188.473 50.432 187.945 51.728C187.849 51.872 187.777 52.04 187.729 52.232C185.569 58.136 184.249 61.856 183.769 63.392C182.521 67.376 181.897 70.4 181.897 72.464V73.112L182.401 72.896C183.409 72.32 184.321 71.624 185.137 70.808C188.113 67.496 190.489 63.8 192.265 59.72C192.313 59.624 192.409 59.576 192.553 59.576C192.697 59.528 192.841 59.528 192.985 59.576C193.129 59.576 193.249 59.6 193.345 59.648H193.417C194.137 59.888 194.809 60.2 195.433 60.584C195.625 60.728 195.913 60.944 196.297 61.232C196.681 61.472 196.993 61.736 197.233 62.024C197.473 62.312 197.593 62.552 197.593 62.744C197.593 62.888 197.569 63.008 197.521 63.104C193.249 72.512 188.785 77.216 184.129 77.216ZM205.714 77.216C204.85 77.216 203.986 77.096 203.122 76.856C201.394 76.472 199.762 75.848 198.226 74.984C195.202 73.544 193.018 71.312 191.674 68.288C191.338 67.184 191.17 66.056 191.17 64.904C191.17 63.848 191.41 62.48 191.89 60.8C192.37 59.072 193.162 57.272 194.266 55.4C196.282 51.56 199.066 48.392 202.618 45.896C203.29 45.416 204.034 45.176 204.85 45.176C205.618 45.176 206.41 45.392 207.226 45.824C208.09 46.256 208.858 46.808 209.53 47.48C210.25 48.104 210.61 48.776 210.61 49.496C210.61 50.072 210.37 50.768 209.89 51.584C208.69 53.84 207.85 54.968 207.37 54.968C207.178 54.968 206.986 54.92 206.794 54.824C205.642 54.536 204.586 53.96 203.626 53.096C201.61 55.448 199.93 58.016 198.586 60.8C197.914 62.192 197.386 63.68 197.002 65.264C196.762 66.176 196.642 67.112 196.642 68.072L196.714 69.512L196.93 70.448C197.17 71.696 197.554 72.536 198.082 72.968C198.658 73.4 199.522 73.616 200.674 73.616C200.77 73.616 201.202 73.616 201.97 73.616C202.738 73.568 203.842 72.992 205.282 71.888C208.498 69.056 211.306 65 213.706 59.72C213.754 59.624 213.85 59.576 213.994 59.576C214.138 59.528 214.282 59.528 214.426 59.576C214.57 59.576 214.69 59.6 214.786 59.648H214.858C215.578 59.888 216.25 60.2 216.874 60.584C218.362 61.448 219.106 62.192 219.106 62.816C219.106 62.912 219.058 63.032 218.962 63.176C218.914 63.272 218.626 63.824 218.098 64.832C217.57 65.84 216.97 66.944 216.298 68.144C214.81 70.736 213.202 72.896 211.474 74.624C209.746 76.352 207.826 77.216 205.714 77.216ZM235.151 77.216H234.791C233.159 76.928 231.695 76.256 230.399 75.2C229.487 74.576 228.743 73.784 228.167 72.824C227.687 71.768 227.447 70.688 227.447 69.584L227.519 68.72C227.855 65.312 229.007 60.896 230.975 55.472C228.671 58.112 226.463 60.8 224.351 63.536C220.943 67.712 217.751 72.032 214.775 76.496C214.679 76.688 214.511 76.784 214.271 76.784C213.599 76.784 212.855 76.472 212.039 75.848H211.967C211.391 75.512 210.839 75.104 210.311 74.624C209.735 74.096 209.423 73.712 209.375 73.472C209.375 72.656 209.495 71.888 209.735 71.168L209.807 70.88C210.143 69.536 210.551 68.216 211.031 66.92C213.671 59.48 216.623 52.136 219.887 44.888C223.871 35.912 227.063 29.384 229.463 25.304C229.559 25.16 229.727 25.088 229.967 25.088L230.615 25.232C231.335 25.472 232.007 25.784 232.631 26.168C233.543 26.696 234.215 27.272 234.647 27.896C234.791 28.088 234.863 28.256 234.863 28.4L234.791 28.688C233.015 31.76 231.383 34.904 229.895 38.12C226.919 44.312 224.135 50.576 221.543 56.912L224.639 53.312C226.655 50.816 228.911 48.56 231.407 46.544V46.472C232.511 45.512 233.543 45.032 234.503 45.032C235.031 45.032 235.535 45.152 236.015 45.392C237.263 45.872 238.343 46.592 239.255 47.552C239.351 47.696 239.471 47.864 239.615 48.056C239.759 48.2 239.831 48.464 239.831 48.848C239.831 49.136 239.711 49.544 239.471 50.072C239.471 50.36 239.111 51.416 238.391 53.24C238.391 53.336 238.367 53.408 238.319 53.456L237.815 54.752L235.151 62.384C234.095 65.312 233.375 68.264 232.991 71.24V73.112C233.519 72.872 233.999 72.584 234.431 72.248C235.967 71.048 237.311 69.632 238.463 68C240.335 65.408 241.943 62.648 243.287 59.72C243.335 59.624 243.431 59.576 243.575 59.576C243.719 59.528 243.863 59.528 244.007 59.576C244.151 59.576 244.271 59.6 244.367 59.648H244.439C245.159 59.888 245.831 60.2 246.455 60.584C246.695 60.728 247.007 60.944 247.391 61.232C247.775 61.472 248.087 61.736 248.327 62.024C248.567 62.264 248.687 62.528 248.687 62.816L248.615 63.032C247.607 65.144 246.479 67.232 245.231 69.296C242.063 74.576 238.703 77.216 235.151 77.216ZM265.041 77.216C263.649 77.216 262.185 76.736 260.649 75.776C258.297 74.384 256.953 72.584 256.617 70.376C255.945 71.336 255.225 72.272 254.457 73.184C253.689 74.096 252.801 74.936 251.793 75.704C250.785 76.472 249.657 76.904 248.409 77C247.497 77 246.609 76.784 245.745 76.352C243.249 75.248 241.665 73.832 240.993 72.104C240.753 71.24 240.633 70.376 240.633 69.512C240.633 68.744 240.729 67.976 240.921 67.208C241.353 65 242.001 62.864 242.865 60.8C244.641 56.192 247.137 52.064 250.353 48.416C251.601 46.976 253.065 45.944 254.745 45.32C255.273 45.176 255.777 45.104 256.257 45.104C257.121 45.104 258.105 45.368 259.209 45.896C260.793 46.616 262.017 47.504 262.881 48.56L264.393 46.112C264.441 45.968 264.609 45.896 264.897 45.896L265.473 46.04C265.857 46.04 266.553 46.352 267.561 46.976C268.329 47.408 268.977 47.96 269.505 48.632L269.793 49.208L269.721 49.496C267.417 53.336 265.521 57.392 264.033 61.664C262.737 65.024 262.041 68.504 261.945 72.104L262.089 73.328C264.441 72.416 266.697 70.256 268.857 66.848C270.393 64.592 271.737 62.216 272.889 59.72C272.937 59.624 273.033 59.576 273.177 59.576C273.321 59.528 273.465 59.528 273.609 59.576C273.753 59.576 273.873 59.6 273.969 59.648H274.041C274.761 59.888 275.433 60.2 276.057 60.584L276.921 61.16C277.785 61.784 278.217 62.288 278.217 62.672C278.217 62.816 278.193 62.936 278.145 63.032C276.753 66.248 275.001 69.248 272.889 72.032C270.393 75.488 267.777 77.216 265.041 77.216ZM246.105 72.536C249.417 70.04 254.001 63.728 259.857 53.6L262.233 49.568C261.561 49.472 260.937 49.232 260.361 48.848H260.217C258.297 49.184 256.281 50.792 254.169 53.672C251.385 57.32 249.225 61.328 247.689 65.696C247.113 67.184 246.681 68.696 246.393 70.232C246.201 71.048 246.105 71.816 246.105 72.536ZM298.386 77.216H298.026C296.394 76.928 294.906 76.256 293.562 75.2C291.642 73.904 290.682 72.08 290.682 69.728C290.682 67.904 291.042 65.744 291.762 63.248C292.53 60.272 293.466 57.344 294.57 54.464L293.13 56.12C289.434 60.536 285.978 65.096 282.762 69.8C280.506 73.016 278.946 75.32 278.082 76.712C277.89 77.048 277.53 77.216 277.002 77.216C276.042 77.216 275.034 76.952 273.978 76.424C271.338 75.032 270.018 73.16 270.018 70.808C270.018 70.328 270.066 69.824 270.162 69.296C270.546 66.704 271.218 64.16 272.178 61.664C274.146 56.288 276.474 51.056 279.162 45.968C279.21 45.872 279.306 45.824 279.45 45.824C279.594 45.776 279.738 45.776 279.882 45.824C280.026 45.824 280.146 45.848 280.242 45.896C281.106 46.136 282.114 46.64 283.266 47.408C284.13 48.032 284.562 48.56 284.562 48.992C284.562 49.136 284.058 50.216 283.05 52.232C280.554 57.08 278.466 62.096 276.786 67.28C276.786 67.328 276.762 67.352 276.714 67.352V67.424C280.65 61.616 284.682 56.336 288.81 51.584C290.874 49.136 292.938 47.216 295.002 45.824C295.818 45.296 296.634 45.032 297.45 45.032C298.938 45.032 300.45 45.728 301.986 47.12C302.658 47.6 302.994 48.128 302.994 48.704C302.994 49.424 302.73 50.432 302.202 51.728C302.106 51.872 302.034 52.04 301.986 52.232C299.826 58.136 298.506 61.856 298.026 63.392C296.778 67.376 296.154 70.4 296.154 72.464V73.112L296.658 72.896C297.666 72.32 298.578 71.624 299.394 70.808C302.37 67.496 304.746 63.8 306.522 59.72C306.57 59.624 306.666 59.576 306.81 59.576C306.954 59.528 307.098 59.528 307.242 59.576C307.386 59.576 307.506 59.6 307.602 59.648H307.674C308.394 59.888 309.066 60.2 309.69 60.584C309.882 60.728 310.17 60.944 310.554 61.232C310.938 61.472 311.25 61.736 311.49 62.024C311.73 62.312 311.85 62.552 311.85 62.744C311.85 62.888 311.826 63.008 311.778 63.104C307.506 72.512 303.042 77.216 298.386 77.216ZM315.364 77.216H315.148C312.268 76.784 309.724 75.296 307.516 72.752C306.268 70.928 305.644 68.816 305.644 66.416C305.644 64.544 305.836 62.72 306.22 60.944C307.42 55.52 309.196 50.288 311.548 45.248L312.124 44.024H309.172C308.5 43.976 307.852 43.952 307.228 43.952C306.604 43.904 306.028 43.712 305.5 43.376H305.356C304.156 42.752 303.292 42.056 302.764 41.288C302.572 41.048 302.476 40.808 302.476 40.568C302.476 40.376 302.668 40.28 303.052 40.28L313.78 40.352C315.46 36.896 317.26 33.488 319.18 30.128C319.276 29.984 319.396 29.912 319.54 29.912L320.332 29.984C321.052 30.224 321.724 30.56 322.348 30.992C323.02 31.376 323.62 31.832 324.148 32.36C324.196 32.456 324.268 32.6 324.364 32.792C324.508 32.936 324.604 33.104 324.652 33.296L324.58 33.44C323.236 35.744 321.988 38.072 320.836 40.424C323.044 40.472 325.276 40.496 327.532 40.496C328.108 40.544 328.684 40.736 329.26 41.072C329.308 41.072 329.332 41.096 329.332 41.144C330.1 41.528 330.772 41.984 331.348 42.512C331.972 42.992 332.284 43.448 332.284 43.88C332.284 44.072 332.068 44.192 331.636 44.24L330.124 44.168L319.036 44.096C315.532 51.152 313.036 57.944 311.548 64.472C311.26 66.008 311.116 67.568 311.116 69.152C311.116 71.024 311.284 72.32 311.62 73.04C311.668 73.136 311.692 73.232 311.692 73.328C311.74 73.424 311.788 73.496 311.836 73.544L312.484 73.4C314.452 72.632 316.084 71.408 317.38 69.728C319.876 66.656 321.916 63.32 323.5 59.72C323.548 59.624 323.644 59.576 323.788 59.576C323.932 59.528 324.076 59.528 324.22 59.576C324.412 59.576 324.556 59.6 324.652 59.648C325.372 59.888 326.068 60.2 326.74 60.584L327.604 61.16C328.468 61.784 328.9 62.336 328.9 62.816L328.828 63.104C324.556 72.512 320.068 77.216 315.364 77.216Z" fill="#8759F2"/>
</svg>
